
<svg width="461px" height="42px" viewBox="0 0 461 42" version="1.1" xmlns="http://www.w3.org/2000/svg" xmlns:xlink="http://www.w3.org/1999/xlink">
    <g id="Symbols" stroke="none" stroke-width="1" fill="none" fill-rule="evenodd">
        <g id="Line-Breaker">
            <g>
                <g id="deathly-hallows" transform="translate(209.000000, 0.000000)" fill="#FFFFFF" fill-rule="nonzero">
                    <path d="M45.8821408,40.5855424 L23.8404456,0.45900967 C23.5035306,-0.153003223 22.4965592,-0.153003223 22.1596443,0.45900967 L0.117859202,40.5855424 C-0.045027949,40.8813024 -0.0384693378,41.2414047 0.133761588,41.5316164 C0.305992514,41.8217386 0.619458189,42 0.95825987,42 L45.0417401,42 C45.3805418,42 45.6940075,41.8218281 45.8662384,41.5316164 C46.0384693,41.2414047 46.0450279,40.8813024 45.8821408,40.5855424 Z M2.5755415,40.0908491 L9.02103908,28.3675672 C9.13397297,33.368551 11.8982928,37.7197578 15.9701122,40.0908491 L2.5755415,40.0908491 Z M22.0416791,40.0421673 C15.8285181,39.5491743 10.9215988,34.366081 10.9215988,28.0527461 C10.9215988,21.7394112 15.8285181,16.5555125 22.0416791,16.0624301 L22.0416791,40.0421673 Z M22.0416791,14.1533686 C19.7420324,14.3108687 17.5979954,15.0217665 15.734721,16.1563931 L22.0416791,4.68493229 L22.0416791,14.1533686 Z M23.9584107,4.68493229 L30.2579118,16.1427014 C28.3957155,15.013623 26.2545536,14.3073786 23.9584107,14.1526527 L23.9584107,4.68493229 Z M23.9584107,16.0616247 C30.1785796,16.5476375 35.093495,21.7344893 35.093495,28.0527461 C35.093495,34.3710029 30.1786694,39.5569598 23.9584107,40.0429727 L23.9584107,16.0616247 Z M30.0449816,40.0908491 C34.1100627,37.7236953 36.871238,33.3830482 36.9927969,28.3925345 L43.4246382,40.0908491 L30.0449816,40.0908491 Z" id="Shape"></path>
                </g>
                <path d="M259.5,21 L460.5,21" id="Line" stroke="#ECE2E2" stroke-linecap="square"></path>
                <path d="M0.5,21 L201.5,21" id="Line" stroke="#ECE2E2" stroke-linecap="square"></path>
            </g>
        </g>
    </g>
</svg>
